<svg width="20" height="20" viewBox="0 0 20 20" fill="none" xmlns="http://www.w3.org/2000/svg">
<g clip-path="url(#clip0_299_9573)">
<path d="M16.6666 10V18.3333H3.33331V10" stroke="#FF8A1E" stroke-width="2" stroke-linecap="round" stroke-linejoin="round"/>
<path d="M18.3334 5.83337H1.66669V10H18.3334V5.83337Z" stroke="#FF8A1E" stroke-width="2" stroke-linecap="round" stroke-linejoin="round"/>
<path d="M10 18.3334V5.83337" stroke="#FF8A1E" stroke-width="2" stroke-linecap="round" stroke-linejoin="round"/>
<path d="M10 5.83335H6.25002C5.69749 5.83335 5.16758 5.61386 4.77688 5.22316C4.38618 4.83246 4.16669 4.30255 4.16669 3.75002C4.16669 3.19749 4.38618 2.66758 4.77688 2.27688C5.16758 1.88618 5.69749 1.66669 6.25002 1.66669C9.16669 1.66669 10 5.83335 10 5.83335Z" stroke="#FF8A1E" stroke-width="2" stroke-linecap="round" stroke-linejoin="round"/>
<path d="M10 5.83335H13.75C14.3025 5.83335 14.8324 5.61386 15.2231 5.22316C15.6138 4.83246 15.8333 4.30255 15.8333 3.75002C15.8333 3.19749 15.6138 2.66758 15.2231 2.27688C14.8324 1.88618 14.3025 1.66669 13.75 1.66669C10.8333 1.66669 10 5.83335 10 5.83335Z" stroke="#FF8A1E" stroke-width="2" stroke-linecap="round" stroke-linejoin="round"/>
</g>
<defs>
<clipPath id="clip0_299_9573">
<rect width="20" height="20" fill="white"/>
</clipPath>
</defs>
</svg>
