<svg width="27" height="27" viewBox="0 0 27 27" fill="none" xmlns="http://www.w3.org/2000/svg">
<circle cx="13.5" cy="13.5" r="13.5" transform="rotate(-180 13.5 13.5)" fill="#FF8A1E"/>
<path d="M15.7624 7.88734C15.9576 7.69207 15.9576 7.37549 15.7624 7.18023C15.5671 6.98497 15.2505 6.98497 15.0553 7.18023L15.7624 7.88734ZM15.0553 7.18023L8.6913 13.5442L9.39841 14.2513L15.7624 7.88734L15.0553 7.18023Z" fill="white"/>
<path d="M15.0553 19.8198C15.2505 20.015 15.5671 20.015 15.7624 19.8198C15.9576 19.6245 15.9576 19.3079 15.7624 19.1127L15.0553 19.8198ZM15.7624 19.1127L9.39841 12.7487L8.6913 13.4558L15.0553 19.8198L15.7624 19.1127Z" fill="white"/>
</svg>
