<svg xmlns="http://www.w3.org/2000/svg" width="20" height="21" viewBox="0 0 20 21" fill="none">
<path d="M9.21234 1.35596C9.59648 0.811824 10.4035 0.811824 10.7877 1.35596C11.0971 1.79426 11.7048 1.89567 12.1397 1.58158C12.6797 1.19166 13.4431 1.4537 13.6297 2.09309C13.78 2.60811 14.3219 2.90134 14.8353 2.74551C15.4726 2.55205 16.1095 3.04774 16.0784 3.71308C16.0534 4.24901 16.4706 4.70229 17.0068 4.7216C17.6724 4.74557 18.1139 5.42119 17.8684 6.0404C17.6707 6.53916 17.9182 7.10336 18.4191 7.29572C19.0408 7.53453 19.239 8.31687 18.8058 8.82283C18.4568 9.23038 18.5077 9.84437 18.919 10.1889C19.4295 10.6167 19.3629 11.421 18.7889 11.7589C18.3265 12.031 18.1753 12.6283 18.4524 13.0877C18.7964 13.6581 18.4722 14.3971 17.8196 14.5303C17.2939 14.6376 16.9569 15.1534 17.0698 15.6779C17.21 16.329 16.6634 16.9228 16.0029 16.8369C15.4709 16.7677 14.9847 17.1461 14.9212 17.6788C14.8423 18.3402 14.1325 18.7243 13.5357 18.4286C13.055 18.1904 12.4723 18.3904 12.2392 18.8737C11.9499 19.4736 11.1539 19.6065 10.6854 19.133C10.308 18.7516 9.69195 18.7516 9.31461 19.133C8.84615 19.6065 8.05012 19.4736 7.76078 18.8737C7.52773 18.3904 6.94501 18.1904 6.46428 18.4286C5.86746 18.7243 5.15769 18.3402 5.07883 17.6788C5.01531 17.1461 4.52912 16.7677 3.99709 16.8369C3.33659 16.9228 2.79 16.329 2.93016 15.6779C3.04307 15.1534 2.70609 14.6376 2.18042 14.5303C1.5278 14.3971 1.20362 13.6581 1.54762 13.0877C1.82471 12.6283 1.67347 12.031 1.21112 11.7589C0.637114 11.421 0.57047 10.6167 1.08103 10.1889C1.49228 9.84437 1.54315 9.23038 1.19423 8.82283C0.761038 8.31687 0.959153 7.53453 1.58094 7.29572C2.08179 7.10336 2.32927 6.53916 2.13158 6.0404C1.88615 5.42119 2.32755 4.74557 2.99319 4.7216C3.52936 4.70229 3.94663 4.24901 3.9216 3.71308C3.89052 3.04774 4.52738 2.55205 5.16474 2.74551C5.67812 2.90134 6.21996 2.60811 6.3703 2.09309C6.55695 1.4537 7.32025 1.19166 7.86026 1.58158C8.29523 1.89567 8.90292 1.79426 9.21234 1.35596Z" fill="#73CA55"/>
<path d="M5.18518 9.11377L8.89639 12.825" stroke="white" stroke-width="2" stroke-linecap="round"/>
<path d="M15.1515 7.98453C15.5421 7.59401 15.5421 6.96084 15.1515 6.57032C14.761 6.17979 14.1279 6.17979 13.7373 6.57032L15.1515 7.98453ZM9.58473 13.5513L15.1515 7.98453L13.7373 6.57032L8.17052 12.1371L9.58473 13.5513Z" fill="white"/>
</svg>