<svg width="25" height="25" viewBox="0 0 25 25" fill="none" xmlns="http://www.w3.org/2000/svg">
<g clip-path="url(#clip0_463_215)">
<path d="M12.7654 15.2402C14.4133 15.2402 15.7491 13.8971 15.7491 12.2402C15.7491 10.5834 14.4133 9.24023 12.7654 9.24023C11.1176 9.24023 9.7818 10.5834 9.7818 12.2402C9.7818 13.8971 11.1176 15.2402 12.7654 15.2402Z" stroke="#575551" stroke-width="2" stroke-linecap="round" stroke-linejoin="round"/>
<path d="M20.1251 15.2402C19.9927 15.5419 19.9532 15.8764 20.0117 16.2008C20.0702 16.5252 20.224 16.8246 20.4533 17.0602L20.513 17.1202C20.6979 17.306 20.8446 17.5266 20.9447 17.7694C21.0448 18.0122 21.0963 18.2724 21.0963 18.5352C21.0963 18.7981 21.0448 19.0583 20.9447 19.3011C20.8446 19.5439 20.6979 19.7645 20.513 19.9502C20.3282 20.1362 20.1088 20.2837 19.8674 20.3844C19.6259 20.485 19.3671 20.5368 19.1057 20.5368C18.8443 20.5368 18.5854 20.485 18.344 20.3844C18.1025 20.2837 17.8831 20.1362 17.6984 19.9502L17.6387 19.8902C17.4043 19.6597 17.1066 19.505 16.784 19.4462C16.4614 19.3874 16.1286 19.4271 15.8286 19.5602C15.5345 19.687 15.2836 19.8975 15.1069 20.1658C14.9302 20.4341 14.8354 20.7484 14.8341 21.0702V21.2402C14.8341 21.7707 14.6245 22.2794 14.2515 22.6544C13.8785 23.0295 13.3725 23.2402 12.845 23.2402C12.3175 23.2402 11.8115 23.0295 11.4385 22.6544C11.0655 22.2794 10.8559 21.7707 10.8559 21.2402V21.1502C10.8482 20.8192 10.7417 20.4982 10.5501 20.2289C10.3585 19.9596 10.0908 19.7545 9.7818 19.6402C9.48183 19.5071 9.14908 19.4674 8.82645 19.5262C8.50383 19.585 8.20612 19.7397 7.97173 19.9702L7.91206 20.0302C7.72732 20.2162 7.50795 20.3637 7.26648 20.4644C7.02501 20.565 6.76617 20.6168 6.50478 20.6168C6.24338 20.6168 5.98454 20.565 5.74307 20.4644C5.5016 20.3637 5.28223 20.2162 5.09749 20.0302C4.91256 19.8445 4.76584 19.6239 4.66574 19.3811C4.56564 19.1383 4.51412 18.8781 4.51412 18.6152C4.51412 18.3524 4.56564 18.0921 4.66574 17.8494C4.76584 17.6066 4.91256 17.386 5.09749 17.2002L5.15717 17.1402C5.38645 16.9046 5.54025 16.6052 5.59875 16.2808C5.65725 15.9564 5.61776 15.6219 5.48537 15.3202C5.3593 15.0245 5.14996 14.7722 4.88314 14.5945C4.61631 14.4169 4.30363 14.3215 3.9836 14.3202H3.81453C3.28699 14.3202 2.78106 14.1095 2.40803 13.7344C2.035 13.3594 1.82544 12.8507 1.82544 12.3202C1.82544 11.7898 2.035 11.2811 2.40803 10.906C2.78106 10.5309 3.28699 10.3202 3.81453 10.3202H3.90404C4.23323 10.3125 4.55249 10.2054 4.82031 10.0127C5.08814 9.82014 5.29214 9.55097 5.4058 9.24023C5.53819 8.93862 5.57768 8.60404 5.51919 8.27965C5.46069 7.95525 5.30688 7.65591 5.0776 7.42023L5.01793 7.36023C4.83299 7.17449 4.68628 6.95391 4.58618 6.71111C4.48608 6.46832 4.43456 6.20807 4.43456 5.94523C4.43456 5.6824 4.48608 5.42215 4.58618 5.17935C4.68628 4.93656 4.83299 4.71598 5.01793 4.53023C5.20266 4.34428 5.42204 4.19676 5.66351 4.09611C5.90498 3.99547 6.16382 3.94366 6.42521 3.94366C6.68661 3.94366 6.94544 3.99547 7.18692 4.09611C7.42839 4.19676 7.64776 4.34428 7.83249 4.53023L7.89217 4.59023C8.12656 4.82077 8.42426 4.97542 8.74689 5.03424C9.06952 5.09306 9.40227 5.05335 9.70224 4.92023H9.7818C10.076 4.79347 10.3268 4.58299 10.5035 4.3147C10.6802 4.04641 10.7751 3.73202 10.7763 3.41023V3.24023C10.7763 2.7098 10.9859 2.20109 11.3589 1.82602C11.732 1.45095 12.2379 1.24023 12.7654 1.24023C13.293 1.24023 13.7989 1.45095 14.1719 1.82602C14.545 2.20109 14.7545 2.7098 14.7545 3.24023V3.33023C14.7558 3.65202 14.8506 3.96641 15.0273 4.2347C15.204 4.50299 15.4549 4.71347 15.7491 4.84023C16.049 4.97335 16.3818 5.01306 16.7044 4.95424C17.0271 4.89542 17.3248 4.74077 17.5591 4.51023L17.6188 4.45023C17.8036 4.26428 18.0229 4.11676 18.2644 4.01611C18.5059 3.91547 18.7647 3.86366 19.0261 3.86366C19.2875 3.86366 19.5463 3.91547 19.7878 4.01611C20.0293 4.11676 20.2487 4.26428 20.4334 4.45023C20.6183 4.63598 20.765 4.85656 20.8651 5.09935C20.9652 5.34215 21.0168 5.6024 21.0168 5.86523C21.0168 6.12807 20.9652 6.38832 20.8651 6.63111C20.765 6.87391 20.6183 7.09449 20.4334 7.28023L20.3737 7.34023C20.1444 7.57591 19.9906 7.87525 19.9321 8.19965C19.8736 8.52404 19.9131 8.85862 20.0455 9.16023V9.24023C20.1716 9.536 20.3809 9.78825 20.6477 9.96593C20.9146 10.1436 21.2272 10.239 21.5473 10.2402H21.7163C22.2439 10.2402 22.7498 10.4509 23.1228 10.826C23.4959 11.2011 23.7054 11.7098 23.7054 12.2402C23.7054 12.7707 23.4959 13.2794 23.1228 13.6544C22.7498 14.0295 22.2439 14.2402 21.7163 14.2402H21.6268C21.3068 14.2415 20.9941 14.3369 20.7273 14.5145C20.4605 14.6922 20.2511 14.9445 20.1251 15.2402Z" stroke="#575551" stroke-width="2" stroke-linecap="round" stroke-linejoin="round"/>
</g>
<defs>
<clipPath id="clip0_463_215">
<rect width="23.8691" height="24" fill="white" transform="translate(0.830902 0.240234)"/>
</clipPath>
</defs>
</svg>
