<svg xmlns="http://www.w3.org/2000/svg" width="24" height="25" viewBox="0 0 24 25" fill="none">
<path d="M16 3.24023H1V16.2402H16V3.24023Z" stroke="#575551" stroke-width="2" stroke-linecap="round" stroke-linejoin="round"/>
<path d="M16 8.24023H20L23 11.2402V16.2402H16V8.24023Z" stroke="#575551" stroke-width="2" stroke-linecap="round" stroke-linejoin="round"/>
<path d="M5.5 21.2402C6.88071 21.2402 8 20.1209 8 18.7402C8 17.3595 6.88071 16.2402 5.5 16.2402C4.11929 16.2402 3 17.3595 3 18.7402C3 20.1209 4.11929 21.2402 5.5 21.2402Z" stroke="#575551" stroke-width="2" stroke-linecap="round" stroke-linejoin="round"/>
<path d="M18.5 21.2402C19.8807 21.2402 21 20.1209 21 18.7402C21 17.3595 19.8807 16.2402 18.5 16.2402C17.1193 16.2402 16 17.3595 16 18.7402C16 20.1209 17.1193 21.2402 18.5 21.2402Z" stroke="#575551" stroke-width="2" stroke-linecap="round" stroke-linejoin="round"/>
</svg>